<?xml version="1.0" encoding="utf-8"?>
<!-- Generator: Adobe Illustrator 16.0.0, SVG Export Plug-In . SVG Version: 6.00 Build 0)  -->
<!DOCTYPE svg PUBLIC "-//W3C//DTD SVG 1.1//EN" "http://www.w3.org/Graphics/SVG/1.1/DTD/svg11.dtd">
<svg version="1.1" id="Layer_1" xmlns="http://www.w3.org/2000/svg" xmlns:xlink="http://www.w3.org/1999/xlink" x="0px" y="0px"
	 width="310px" height="82px" viewBox="0 0 310 82" enable-background="new 0 0 310 82" xml:space="preserve">
<g id="XMLID_1591_">
	<path id="XMLID_1647_" fill="#515050" d="M215.899,47.774c0-0.105-0.104-0.21-0.104-0.318c-0.214-0.317-0.53-0.527-0.954-0.527l0,0
		c-0.104,0-0.104,0-0.21,0c0,0,0,0-0.106,0l-20.635,1.904l0.422-13.445l17.038-0.213l0,0l0,0c0.528,0,0.954-0.317,1.165-0.74l0,0
		c0.422-1.059,0.632-2.434,0.632-4.127c0-1.696-0.21-3.071-0.632-4.023l0,0c-0.211-0.424-0.637-0.74-1.165-0.74l-16.932,1.059
		l0.529-10.799l19.576,0.105c0.74-0.953,1.162-2.436,1.271-4.554c0-1.481-0.108-2.646-0.319-3.493l0,0
		c0-0.105-0.104-0.212-0.104-0.212l0,0c-0.211-0.423-0.635-0.741-1.165-0.741l-29.1,0.318c-0.105,0-0.105,0-0.212,0c0,0,0,0-0.104,0
		c-0.423,0.105-0.849,0.527-0.953,0.953v0.105v0.317l-2.436,48.384v0.105v0.104c0,0.636,0.53,1.167,1.271,1.167h0.104l31.854-0.636
		c0.528,0,0.95-0.319,1.164-0.636c0-0.105,0.104-0.105,0.104-0.211c0.528-1.166,0.74-2.754,0.74-4.658
		C216.745,50.21,216.428,48.835,215.899,47.774z"/>
	<g id="XMLID_1602_">
		<path id="XMLID_1633_" fill="#3EBDDE" d="M50.607,7.968c-0.104-0.424-0.424-0.848-0.951-0.953
			c-1.377-0.318-3.28-0.424-5.504-0.424c-2.328,0-4.125,0.212-5.502,0.529l0,0c-0.104,0-0.104,0-0.212,0.105l0,0
			c-0.317,0.105-0.635,0.423-0.741,0.847v0.847l-0.635,16.306l-7.619,0.104l-8.041,0.105h-1.375l1.058-16.939l0.104-0.848
			c-0.104-0.529-0.529-0.846-0.953-0.953c-1.48-0.318-3.385-0.423-5.713-0.423c-2.224,0-4.021,0.212-5.396,0.53c0,0,0,0-0.107,0
			C8.599,6.906,8.175,7.331,8.068,7.753l0,0v0.319l-3.069,48.7v0.107c0,0.104,0,0.209,0.106,0.315
			c0.104,0.318,0.422,0.636,0.846,0.741l0,0c0.104,0,0.211,0,0.316,0l0,0c1.271,0.107,2.963,0.212,4.973,0.107
			c2.117-0.107,3.811-0.318,5.08-0.744h0.105c0.105,0,0.211,0,0.211-0.104c0.213-0.104,0.424-0.315,0.637-0.634
			c0-0.107,0-0.107,0.104-0.212v-0.741l1.693-20.327h2.012h1.164l6.455,0.104l7.408,0.105l-0.848,20.54l0.107,1.06l0,0
			c0.104,0.423,0.423,0.847,0.951,0.953h0.105c1.376,0.318,3.176,0.424,5.291,0.528c2.117,0.104,3.915-0.104,5.292-0.317l0,0
			c0.106,0,0.106,0,0.106,0c0.422-0.105,0.846-0.528,0.951-0.955c0-0.104,0-0.211,0-0.211l0,0l2.646-48.806
			C50.607,8.18,50.607,8.073,50.607,7.968z"/>
		<path id="XMLID_1620_" fill="#3EBDDE" d="M93.041,47.774c0-0.105-0.105-0.21-0.105-0.318c-0.211-0.317-0.529-0.527-0.953-0.527
			l0,0c-0.105,0-0.105,0-0.211,0c0,0,0,0-0.105,0l-20.635,1.904l0.319-13.34l17.036-0.21l0,0l0,0c0.527,0,0.953-0.317,1.164-0.741
			l0,0c0.424-1.06,0.635-2.436,0.635-4.129c0-1.695-0.211-3.07-0.635-4.022l0,0c-0.21-0.425-0.637-0.742-1.164-0.742l-16.932,1.06
			l0.529-10.8l19.577,0.106c0.741-0.952,1.164-2.436,1.271-4.553c0-1.481-0.106-2.646-0.318-3.494l0,0
			c0-0.105-0.107-0.213-0.107-0.213l0,0c-0.209-0.422-0.634-0.739-1.164-0.739l-29.1,0.212c-0.105,0-0.105,0-0.213,0
			c0,0,0,0-0.104,0c-0.426,0.105-0.849,0.527-0.955,0.953v0.105v0.317L58.65,56.882v0.105v0.105c0,0.636,0.527,1.164,1.27,1.164
			h0.107l31.85-0.635c0.529,0,0.953-0.318,1.164-0.635c0-0.105,0.104-0.105,0.104-0.213c0.529-1.164,0.742-2.752,0.742-4.656
			C93.888,50.21,93.57,48.835,93.041,47.774z"/>
		<path id="XMLID_1607_" fill="#3EBDDE" d="M130.819,46.505L130.819,46.505c-0.212-0.422-0.635-0.74-1.166-0.74l0,0
			c-0.104,0-0.104,0-0.21,0c0,0,0,0-0.104,0l-17.038,1.482l3.174-38.75c0-0.107,0-0.211,0-0.211l0,0c0-0.637-0.423-1.06-0.952-1.271
			h-0.106c-1.586-0.318-3.703-0.424-6.137-0.424c-2.435,0-4.339,0.212-5.715,0.636c0,0,0,0-0.106,0c-0.104,0-0.104,0-0.21,0.106
			c-0.424,0.104-0.635,0.528-0.742,0.953l0,0c0,0.104,0,0.104,0,0.211v0.104v0.106L99.92,56.88v0.105
			c0,0.635,0.529,1.164,1.164,1.164h0.211l27.832-0.212c0.316,0,0.635-0.104,0.845-0.317l0.106-0.105
			c0.104-0.107,0.104-0.213,0.212-0.318l0,0c0.741-1.164,1.163-2.964,1.163-5.293C131.561,49.575,131.348,47.774,130.819,46.505z"/>
		<path id="XMLID_1603_" fill="#3EBDDE" d="M170.607,10.613c-3.916-2.964-9.312-4.446-16.296-4.446
			c-5.608,0-10.688,0.529-15.237,1.694c0,0,0,0-0.105,0c0,0,0,0-0.105,0c-0.424,0.106-0.739,0.528-0.848,0.954l0,0v0.104v0.213l0,0
			l-1.798,48.064c0,0.637,0.318,1.059,0.847,1.271c1.375,0.529,3.174,0.847,5.396,0.738c2.117,0,3.917-0.315,5.186-0.951
			c0.106,0,0.106-0.105,0.212-0.105h0.105c0.105,0,0.105-0.105,0.211-0.212c0.317-0.317,0.425-0.636,0.425-1.058l-0.107-16.834
			c2.434,0.953,5.079,1.483,7.938,1.483c5.396,0,10.053-1.694,14.074-4.978c4.021-3.282,6.032-7.623,6.032-13.127
			C176.533,17.814,174.524,13.579,170.607,10.613z M161.929,30.096c-1.904,1.586-4.442,2.435-7.406,2.435
			c-1.692,0-3.6-0.318-5.608-0.848l-0.106-15.774c2.116-0.53,4.127-0.846,6.244-0.846c3.068,0,5.503,0.739,7.195,2.224
			c1.693,1.481,2.646,3.492,2.646,6.033C164.787,26.283,163.835,28.507,161.929,30.096z"/>
	</g>
	<g id="XMLID_617_">
		<path id="XMLID_618_" fill="#5E5F5F" d="M11.031,69.796c0,0.635-0.213,1.271-0.635,1.695c-0.318,0.318-0.635,0.424-1.164,0.528
			c-0.318,0.104-0.742,0.104-1.271,0.104H6.162v3.918H5.738v-8.364h2.33C10.078,67.573,11.031,68.314,11.031,69.796z M6.162,67.892
			v3.811h1.586c0.955,0,1.59-0.104,1.906-0.209c0.637-0.318,0.953-0.85,0.953-1.801c0-1.061-0.529-1.587-1.588-1.8
			c-0.316,0-0.74-0.104-1.374-0.104H6.162V67.892z"/>
		<path id="XMLID_621_" fill="#5E5F5F" d="M15.156,72.021v4.023h-0.422V67.68h2.75c0.952,0,1.588,0.106,2.012,0.425
			c0.529,0.316,0.846,0.952,0.846,1.798c0,1.06-0.529,1.8-1.48,2.118c0.74,0.105,1.059,0.634,1.164,1.482c0,0,0,0.422,0,1.059v1.587
			h-0.424v-1.905c0-0.212,0-0.423,0-0.529c0-0.104,0-0.211,0-0.319c-0.105-0.528-0.316-0.845-0.635-1.058
			c-0.316-0.106-0.74-0.211-1.271-0.211L15.156,72.021L15.156,72.021z M17.804,71.702c1.481,0,2.326-0.636,2.326-1.8
			c0-1.057-0.423-1.692-1.374-1.798c-0.105,0-0.212,0-0.424,0c-0.211,0-0.424,0-0.635,0h-2.434v3.706L17.804,71.702L17.804,71.702z"
			/>
		<path id="XMLID_624_" fill="#5E5F5F" d="M24.892,68.737c0.636-0.847,1.588-1.27,2.858-1.27s2.222,0.423,2.857,1.27
			c0.635,0.741,0.846,1.801,0.846,3.072c0,1.27-0.315,2.326-0.846,3.07c-0.636,0.847-1.587,1.27-2.857,1.27s-2.223-0.423-2.858-1.27
			c-0.634-0.744-0.845-1.801-0.845-3.07C24.048,70.538,24.258,69.479,24.892,68.737z M25.212,74.562
			c0.526,0.847,1.375,1.165,2.539,1.165c1.165,0,2.01-0.423,2.54-1.165c0.529-0.741,0.74-1.695,0.74-2.859s-0.209-2.115-0.74-2.856
			c-0.635-0.849-1.48-1.271-2.54-1.271c-1.163,0-2.011,0.423-2.539,1.271c-0.53,0.741-0.742,1.692-0.742,2.856
			C24.47,72.975,24.681,73.925,25.212,74.562z"/>
		<path id="XMLID_627_" fill="#5E5F5F" d="M35.369,67.573h4.869v0.424h-4.552v3.494h3.599v0.318h-3.599v4.234h-0.317V67.573
			L35.369,67.573z"/>
		<path id="XMLID_629_" fill="#5E5F5F" d="M43.729,67.573h5.183v0.424h-4.76v3.494h3.703v0.318h-3.703v3.811h4.975v0.424h-5.291
			L43.729,67.573L43.729,67.573z"/>
		<path id="XMLID_631_" fill="#5E5F5F" d="M52.724,73.396c0,0.74,0.317,1.271,0.74,1.8c0.425,0.425,1.059,0.636,1.799,0.636
			c0.636,0,1.164-0.209,1.587-0.527c0.529-0.318,0.741-0.85,0.741-1.482c0-0.636-0.212-1.166-0.741-1.482
			c-0.211-0.211-0.847-0.422-1.693-0.635h-0.104c-0.954-0.318-1.589-0.529-1.8-0.742c-0.423-0.317-0.636-0.846-0.636-1.375
			c0-0.74,0.213-1.271,0.742-1.694c0.422-0.318,1.058-0.528,1.797-0.528c0.742,0,1.377,0.21,1.906,0.635
			c0.529,0.422,0.741,1.059,0.846,1.799h-0.422c0-0.635-0.211-1.166-0.742-1.588c-0.422-0.317-0.951-0.529-1.691-0.529
			c-0.637,0-1.164,0.107-1.482,0.425c-0.425,0.315-0.636,0.846-0.636,1.375c0,0.423,0.211,0.848,0.529,1.164
			c0.211,0.213,0.847,0.423,1.692,0.636c0,0,0,0,0.106,0c0.104,0,0.104,0,0.104,0c0.846,0.211,1.481,0.423,1.8,0.637
			c0.636,0.422,0.846,0.951,0.846,1.586c0,0.741-0.317,1.377-0.846,1.801c-0.528,0.423-1.164,0.634-2.011,0.634
			s-1.481-0.21-2.012-0.741c-0.527-0.421-0.74-1.164-0.846-2.011L52.724,73.396L52.724,73.396z"/>
		<path id="XMLID_633_" fill="#5E5F5F" d="M61.824,67.573h0.424v8.363h-0.424V67.573z"/>
		<path id="XMLID_635_" fill="#5E5F5F" d="M67.01,68.737c0.635-0.847,1.587-1.27,2.857-1.27c1.269,0,2.223,0.423,2.856,1.27
			c0.636,0.741,0.847,1.801,0.847,3.072c0,1.27-0.316,2.326-0.847,3.07c-0.635,0.847-1.588,1.27-2.856,1.27
			c-1.271,0-2.223-0.423-2.857-1.27c-0.634-0.744-0.848-1.801-0.848-3.07C66.057,70.538,66.376,69.479,67.01,68.737z M67.221,74.562
			c0.529,0.847,1.375,1.165,2.539,1.165s2.011-0.423,2.54-1.165c0.53-0.741,0.742-1.695,0.742-2.859s-0.212-2.115-0.742-2.856
			c-0.636-0.849-1.479-1.271-2.54-1.271c-1.164,0-2.01,0.423-2.539,1.271c-0.529,0.741-0.741,1.692-0.741,2.856
			C66.48,72.975,66.799,73.925,67.221,74.562z"/>
		<path id="XMLID_638_" fill="#5E5F5F" d="M77.381,67.573h0.423l5.291,7.729v-7.729h0.423v8.363h-0.423l-5.291-7.729v7.729h-0.423
			V67.573z"/>
		<path id="XMLID_823_" fill="#5E5F5F" d="M89.973,67.573h0.423l3.175,8.363h-0.425l-1.056-2.857h-3.917l-1.058,2.857h-0.424
			L89.973,67.573z M91.982,72.762l-1.799-4.765l-1.798,4.765H91.982z"/>
		<path id="XMLID_830_" fill="#5E5F5F" d="M96.746,67.573h0.422v8.047h4.445v0.424h-4.869v-8.471H96.746z"/>
		<path id="XMLID_832_" fill="#5E5F5F" d="M104.999,67.573h5.186v0.424h-4.763v3.494h3.704v0.318h-3.704v3.811h4.869v0.424h-5.292
			V67.573L104.999,67.573z"/>
		<path id="XMLID_834_" fill="#5E5F5F" d="M113.889,73.396c0,0.74,0.317,1.271,0.74,1.8c0.424,0.425,1.058,0.636,1.799,0.636
			c0.635,0,1.165-0.209,1.587-0.527c0.529-0.318,0.74-0.85,0.74-1.482c0-0.636-0.211-1.166-0.74-1.482
			c-0.21-0.211-0.848-0.422-1.693-0.635h-0.105c-0.952-0.318-1.587-0.529-1.8-0.742c-0.422-0.317-0.634-0.846-0.634-1.375
			c0-0.74,0.212-1.271,0.74-1.694c0.423-0.318,1.06-0.528,1.8-0.528s1.375,0.21,1.903,0.635c0.529,0.424,0.741,1.059,0.849,1.799
			h-0.425c0-0.635-0.211-1.166-0.74-1.588c-0.423-0.317-0.952-0.529-1.693-0.529c-0.634,0-1.164,0.107-1.481,0.425
			c-0.423,0.315-0.635,0.846-0.635,1.375c0,0.423,0.212,0.848,0.529,1.164c0.213,0.213,0.847,0.423,1.692,0.636c0,0,0,0,0.105,0
			h0.105c0.847,0.211,1.481,0.423,1.799,0.637c0.635,0.422,0.848,0.951,0.848,1.586c0,0.741-0.317,1.377-0.848,1.801
			c-0.527,0.423-1.165,0.634-2.011,0.634c-0.847,0-1.48-0.21-2.01-0.741c-0.529-0.421-0.741-1.164-0.848-2.011L113.889,73.396
			L113.889,73.396z"/>
		<path id="XMLID_836_" fill="#5E5F5F" d="M130.503,67.573h0.423l3.175,8.363h-0.317l-1.058-2.857h-3.916l-1.06,2.857h-0.422
			L130.503,67.573z M132.512,72.762l-1.8-4.765l-1.798,4.765H132.512z"/>
		<path id="XMLID_840_" fill="#5E5F5F" d="M137.38,67.573h0.424v8.047h4.444v0.424h-4.868V67.573L137.38,67.573z"/>
		<path id="XMLID_866_" fill="#5E5F5F" d="M150.82,73.396c0,0.74,0.315,1.271,0.74,1.8c0.424,0.425,1.059,0.636,1.799,0.636
			c0.636,0,1.165-0.209,1.588-0.527c0.527-0.318,0.74-0.85,0.74-1.482c0-0.636-0.212-1.166-0.74-1.482
			c-0.213-0.211-0.847-0.422-1.693-0.635h-0.106c-0.952-0.318-1.586-0.529-1.797-0.742c-0.425-0.317-0.636-0.846-0.636-1.375
			c0-0.74,0.21-1.271,0.74-1.694c0.425-0.318,1.059-0.528,1.8-0.528s1.376,0.21,1.904,0.635c0.529,0.422,0.739,1.059,0.848,1.799
			h-0.318c0-0.635-0.212-1.166-0.741-1.588c-0.423-0.317-0.952-0.529-1.692-0.529c-0.635,0-1.163,0.107-1.482,0.425
			c-0.422,0.315-0.635,0.846-0.635,1.375c0,0.423,0.213,0.848,0.53,1.164c0.213,0.213,0.847,0.423,1.692,0.636c0,0,0,0,0.105,0
			c0.106,0,0.106,0,0.106,0c0.846,0.211,1.48,0.423,1.799,0.637c0.635,0.422,0.846,0.951,0.846,1.586
			c0,0.741-0.318,1.377-0.846,1.801c-0.529,0.423-1.164,0.634-2.012,0.634c-0.847,0-1.479-0.21-2.01-0.741
			c-0.529-0.421-0.741-1.164-0.848-2.011L150.82,73.396L150.82,73.396z"/>
		<path id="XMLID_870_" fill="#5E5F5F" d="M159.92,67.573h5.186v0.424h-4.761v3.494h3.702v0.318h-3.702v3.811h4.864v0.424h-5.29
			L159.92,67.573L159.92,67.573z"/>
		<path id="XMLID_872_" fill="#5E5F5F" d="M169.232,72.021v4.023h-0.424V67.68h2.752c0.951,0,1.586,0.106,2.01,0.425
			c0.529,0.316,0.849,0.952,0.849,1.798c0,1.06-0.531,1.8-1.482,2.118c0.74,0.105,1.06,0.634,1.164,1.482c0,0,0,0.422,0,1.059v1.587
			h-0.424v-1.905c0-0.212,0-0.423,0-0.529c0-0.104,0-0.211,0-0.319c-0.105-0.528-0.314-0.845-0.635-1.058
			c-0.318-0.106-0.738-0.211-1.271-0.211L169.232,72.021L169.232,72.021z M171.877,71.702c1.483,0,2.328-0.636,2.328-1.8
			c0-1.057-0.424-1.692-1.375-1.798c-0.107,0-0.213,0-0.424,0c-0.212,0-0.425,0-0.636,0h-2.433v3.706L171.877,71.702L171.877,71.702
			z"/>
		<path id="XMLID_875_" fill="#5E5F5F" d="M177.485,67.573h0.424l2.753,7.835l2.646-7.835h0.423l-2.963,8.363h-0.424L177.485,67.573
			z"/>
		<path id="XMLID_877_" fill="#5E5F5F" d="M187.009,67.573h0.425v8.363h-0.425V67.573z"/>
		<path id="XMLID_882_" fill="#5E5F5F" d="M197.063,75.408c-0.53,0.528-1.376,0.741-2.222,0.741c-1.164,0-2.118-0.423-2.754-1.27
			c-0.528-0.744-0.739-1.801-0.739-3.07c0-1.271,0.316-2.331,0.845-3.072c0.637-0.847,1.59-1.375,2.754-1.375
			c0.847,0,1.587,0.21,2.116,0.741c0.423,0.315,0.739,0.741,0.847,1.162l-0.317,0.213c-0.425-1.165-1.269-1.692-2.75-1.692
			c-1.059,0-1.8,0.422-2.435,1.27c-0.426,0.74-0.742,1.695-0.742,2.754c0,1.165,0.214,2.011,0.636,2.752
			c0.528,0.847,1.269,1.27,2.328,1.27c0.845,0,1.48-0.209,2.01-0.636c0.425-0.315,0.636-0.846,0.849-1.375l0.315,0.211
			C197.803,74.562,197.486,74.984,197.063,75.408z"/>
		<path id="XMLID_884_" fill="#5E5F5F" d="M202.036,67.573h0.423v8.363h-0.423V67.573z"/>
		<path id="XMLID_892_" fill="#5E5F5F" d="M207.222,68.737c0.634-0.847,1.587-1.27,2.856-1.27c1.271,0,2.225,0.423,2.856,1.27
			c0.635,0.741,0.847,1.801,0.847,3.072c0,1.27-0.317,2.326-0.847,3.07c-0.636,0.847-1.587,1.27-2.856,1.27
			c-1.271,0-2.224-0.423-2.856-1.27c-0.635-0.744-0.846-1.801-0.846-3.07C206.27,70.538,206.587,69.479,207.222,68.737z
			 M207.433,74.562c0.527,0.847,1.376,1.165,2.54,1.165c1.163,0,2.01-0.423,2.541-1.165c0.526-0.741,0.74-1.695,0.74-2.859
			s-0.214-2.115-0.74-2.856c-0.637-0.849-1.482-1.271-2.541-1.271s-2.013,0.423-2.54,1.271c-0.528,0.741-0.74,1.692-0.74,2.856
			C206.692,72.975,207.01,73.925,207.433,74.562z"/>
		<path id="XMLID_899_" fill="#5E5F5F" d="M222.99,67.573h1.904c1.269,0,2.114,0.105,2.75,0.424
			c1.271,0.633,1.905,1.904,1.905,3.812c0,1.904-0.635,3.175-1.905,3.811c-0.636,0.316-1.481,0.424-2.75,0.424h-1.904V67.573z
			 M224.999,75.62c1.163,0,2.01-0.106,2.54-0.425c1.059-0.528,1.588-1.692,1.588-3.386c0-1.379-0.318-2.436-1.059-3.18
			c-0.317-0.315-0.848-0.525-1.376-0.633c-0.213,0-0.424-0.105-0.637-0.105c-0.21,0-0.527,0-0.95,0h-1.587v7.729H224.999
			L224.999,75.62z"/>
		<path id="XMLID_907_" fill="#5E5F5F" d="M233.36,67.573h5.186v0.424h-4.763v3.494h3.704v0.318h-3.704v3.811h4.867v0.424h-5.29
			V67.573z"/>
		<path id="XMLID_910_" fill="#5E5F5F" d="M242.247,67.573h0.425v8.047h4.445v0.424h-4.87V67.573L242.247,67.573z"/>
		<path id="XMLID_912_" fill="#5E5F5F" d="M255.898,67.573h0.423v3.706h5.291v-3.706h0.425v8.363h-0.425v-4.339h-5.291v4.339h-0.423
			V67.573z"/>
		<path id="XMLID_914_" fill="#5E5F5F" d="M266.798,68.737c0.635-0.847,1.588-1.27,2.857-1.27s2.223,0.423,2.857,1.27
			c0.634,0.741,0.846,1.801,0.846,3.072c0,1.27-0.316,2.326-0.846,3.07c-0.636,0.847-1.589,1.27-2.857,1.27
			c-1.271,0-2.224-0.423-2.857-1.27c-0.636-0.744-0.845-1.801-0.845-3.07C265.848,70.538,266.162,69.479,266.798,68.737z
			 M267.115,74.562c0.527,0.847,1.377,1.165,2.54,1.165s2.011-0.423,2.538-1.165c0.53-0.741,0.74-1.695,0.74-2.859
			s-0.21-2.115-0.74-2.856c-0.634-0.849-1.479-1.271-2.538-1.271c-1.059,0-2.013,0.423-2.54,1.271
			c-0.527,0.741-0.739,1.692-0.739,2.856C266.271,72.975,266.588,73.925,267.115,74.562z"/>
		<path id="XMLID_917_" fill="#5E5F5F" d="M280.449,67.786c-1.059,0-1.903,0.424-2.541,1.271c-0.529,0.741-0.741,1.694-0.741,2.754
			c0,1.165,0.212,2.116,0.741,2.752c0.528,0.847,1.378,1.271,2.541,1.271c0.951,0,1.691-0.318,2.223-0.847
			c0.527-0.53,0.739-1.271,0.739-2.331v-0.316h-2.75v-0.317h3.175c0,0.104,0,0.104,0,0.211s0,0.106,0,0.212
			c0,1.801-0.637,2.965-1.799,3.493c-0.529,0.212-1.06,0.317-1.588,0.317c-1.163,0-2.116-0.422-2.754-1.27
			c-0.528-0.74-0.845-1.8-0.845-3.07c0-1.271,0.315-2.328,0.845-3.069c0.638-0.849,1.591-1.378,2.754-1.378
			c0.737,0,1.375,0.212,1.904,0.529c0.634,0.318,0.953,0.848,1.163,1.59l-0.317,0.211C282.883,68.314,282.037,67.786,280.449,67.786
			z"/>
		<path id="XMLID_919_" fill="#5E5F5F" d="M289.974,67.573h0.423l3.175,8.363h-0.425l-1.057-2.857h-3.81l-1.059,2.857h-0.426
			L289.974,67.573z M292.09,72.762l-1.799-4.765l-1.799,4.765H292.09z"/>
		<path id="XMLID_922_" fill="#5E5F5F" d="M297.274,72.021v4.023h-0.422V67.68h2.751c0.953,0,1.585,0.106,2.01,0.425
			c0.528,0.316,0.849,0.952,0.849,1.798c0,1.06-0.531,1.8-1.483,2.118c0.741,0.105,1.058,0.634,1.164,1.482c0,0,0,0.422,0,1.059
			v1.587h-0.423v-1.905c0-0.212,0-0.423,0-0.529c0-0.104,0-0.211,0-0.319c-0.104-0.528-0.319-0.845-0.634-1.058
			c-0.318-0.106-0.741-0.211-1.272-0.211L297.274,72.021L297.274,72.021z M299.812,71.702c1.481,0,2.329-0.636,2.329-1.8
			c0-1.057-0.423-1.692-1.375-1.798c-0.104,0-0.21,0-0.423,0c-0.212,0-0.426,0-0.635,0h-2.436v3.706L299.812,71.702L299.812,71.702z
			"/>
	</g>
	<g id="XMLID_1594_">
		<path id="XMLID_1597_" fill="#515050" d="M264.788,54.656c-0.107,0-0.211-0.211-0.211-0.211c-1.59-1.377-3.601-3.706-6.243-6.881
			c-3.178-4.022-5.293-6.987-6.032-8.999c7.195-2.964,10.792-8.258,10.792-15.988c0-5.611-2.01-9.738-5.927-12.388
			c-3.914-2.646-9.312-4.022-16.295-4.022c-5.502,0-10.479,0.529-14.921,1.694c-0.104,0-0.316,0.106-0.423,0.106l0,0
			c-0.214,0.105-0.318,0.211-0.423,0.318c-0.212,0.211-0.316,0.422-0.426,0.74v0.422l-1.904,48.066c0,0.213,0,0.423,0.105,0.531
			c0.106,0.104,0.106,0.317,0.316,0.422c0.106,0.105,0.32,0.212,0.424,0.318c0,0,0.107,0,0.107,0.105
			c1.376,0.529,3.068,0.738,5.186,0.636c2.221-0.106,3.914-0.425,5.187-1.06c0.104,0,0.212-0.104,0.314-0.211
			c0.107,0,0.107-0.105,0.214-0.105c0.314-0.318,0.421-0.636,0.421-1.059V39.518c2.754,0.636,5.187,0.849,7.41,0.741
			c0.739,2.858,2.221,6.353,4.549,10.48c2.329,4.129,4.339,6.988,6.031,8.576c1.903,0.637,4.233,0.53,7.196-0.318
			c2.011-0.634,3.491-1.377,4.442-2.328l0,0c0,0,0,0,0-0.105C265.316,56.033,265.316,55.187,264.788,54.656z M248.704,29.565
			c-1.801,1.48-4.128,2.225-6.774,2.225c-2.221,0-4.339-0.213-6.243-0.742V15.802c1.802-0.529,3.812-0.739,5.821-0.739
			c3.068,0,5.502,0.739,7.302,2.224c1.799,1.481,2.75,3.598,2.75,6.246C251.454,26.071,250.503,28.083,248.704,29.565z"/>
		<path id="XMLID_1595_" fill="#515050" d="M301.508,34.329c-2.224-2.435-5.821-4.975-10.688-7.728
			c-2.751-1.589-4.762-2.858-5.927-3.918c-1.164-0.952-1.691-2.224-1.691-3.601c0-1.586,0.527-2.752,1.587-3.492
			c1.059-0.848,2.541-1.271,4.34-1.271c3.386,0,6.771,1.482,10.371,4.342c0.104,0.105,0.104,0.105,0.211,0.211
			c0.209,0.105,0.528,0.211,0.848,0.211c0.317,0,0.528-0.105,0.737-0.211l0,0c0.104-0.105,0.214-0.211,0.318-0.211
			c0.742-0.742,1.376-1.906,1.904-3.494c0.635-1.905,0.953-3.6,0.848-5.082c0-0.105,0-0.211,0-0.317V9.661
			c-0.106-0.316-0.317-0.635-0.529-0.847l0,0c-0.105-0.106-0.212-0.106-0.317-0.106l0,0c-4.02-2.012-9.206-2.963-15.768-2.963
			c-5.396,0-9.628,1.164-12.381,3.601c-2.855,2.434-4.233,5.717-4.233,9.952c0,3.387,0.956,6.246,2.752,8.469
			c1.799,2.224,4.55,4.552,8.149,6.669c0.423,0.212,1.163,0.636,2.222,1.271c1.06,0.529,1.902,1.06,2.538,1.375
			c0.531,0.318,1.271,0.85,2.222,1.484c0.851,0.634,1.59,1.27,2.014,1.8c0.423,0.528,0.847,1.269,1.271,2.009
			c0.316,0.743,0.528,1.59,0.528,2.437c0,1.587-0.528,2.858-1.693,3.918c-1.163,1.06-2.753,1.587-4.868,1.587
			c-3.703,0-7.091-1.8-10.371-5.398c-0.104-0.106-0.211-0.317-0.42-0.424l0,0c-0.214-0.211-0.53-0.318-0.849-0.318
			s-0.636,0.106-0.952,0.318c-0.106,0-0.106,0.106-0.106,0.106c-0.104,0-0.104,0.104-0.104,0.104
			c-0.846,0.952-1.481,2.329-2.01,4.234c-0.74,2.329-0.953,4.234-0.74,5.717l0,0c0,0.107,0,0.107,0,0.213v0.104
			c0.104,0.317,0.315,0.636,0.528,0.848c0.105,0,0.105,0.104,0.212,0.104c0,0,0.104,0,0.104,0.105
			c3.703,2.118,8.784,3.176,15.236,3.176c5.716,0,10.158-1.48,13.335-4.34c3.175-2.964,4.867-6.562,4.867-10.799
			C304.788,39.835,303.729,36.766,301.508,34.329z"/>
	</g>
	<g id="XMLID_349_">
		<path id="XMLID_350_" fill="#5E5F5F" d="M11.031,69.796c0,0.635-0.213,1.271-0.635,1.695c-0.318,0.318-0.635,0.424-1.164,0.528
			c-0.318,0.104-0.742,0.104-1.271,0.104H6.162v3.918H5.738v-8.364h2.33C10.078,67.573,11.031,68.314,11.031,69.796z M6.162,67.892
			v3.811h1.586c0.955,0,1.59-0.104,1.906-0.209c0.637-0.318,0.953-0.85,0.953-1.801c0-1.061-0.529-1.587-1.588-1.8
			c-0.316,0-0.74-0.104-1.374-0.104H6.162V67.892z"/>
		<path id="XMLID_353_" fill="#5E5F5F" d="M15.156,72.021v4.023h-0.422V67.68h2.75c0.952,0,1.588,0.106,2.012,0.425
			c0.529,0.316,0.846,0.952,0.846,1.798c0,1.06-0.529,1.8-1.48,2.118c0.74,0.105,1.059,0.634,1.164,1.482c0,0,0,0.422,0,1.059v1.587
			h-0.424v-1.905c0-0.212,0-0.423,0-0.529c0-0.104,0-0.211,0-0.319c-0.105-0.528-0.316-0.845-0.635-1.058
			c-0.316-0.106-0.74-0.211-1.271-0.211L15.156,72.021L15.156,72.021z M17.804,71.702c1.481,0,2.326-0.636,2.326-1.8
			c0-1.057-0.423-1.692-1.374-1.798c-0.105,0-0.212,0-0.424,0c-0.211,0-0.424,0-0.635,0h-2.434v3.706L17.804,71.702L17.804,71.702z"
			/>
		<path id="XMLID_356_" fill="#5E5F5F" d="M24.892,68.737c0.636-0.847,1.588-1.27,2.858-1.27s2.222,0.423,2.857,1.27
			c0.635,0.741,0.846,1.801,0.846,3.072c0,1.27-0.315,2.326-0.846,3.07c-0.636,0.847-1.587,1.27-2.857,1.27s-2.223-0.423-2.858-1.27
			c-0.634-0.744-0.845-1.801-0.845-3.07C24.048,70.538,24.258,69.479,24.892,68.737z M25.212,74.562
			c0.526,0.847,1.375,1.165,2.539,1.165c1.165,0,2.01-0.423,2.54-1.165c0.529-0.741,0.74-1.695,0.74-2.859s-0.209-2.115-0.74-2.856
			c-0.635-0.849-1.48-1.271-2.54-1.271c-1.163,0-2.011,0.423-2.539,1.271c-0.53,0.741-0.742,1.692-0.742,2.856
			C24.47,72.975,24.681,73.925,25.212,74.562z"/>
		<path id="XMLID_361_" fill="#5E5F5F" d="M35.369,67.573h4.869v0.424h-4.552v3.494h3.599v0.318h-3.599v4.234h-0.317V67.573
			L35.369,67.573z"/>
		<path id="XMLID_365_" fill="#5E5F5F" d="M43.729,67.573h5.183v0.424h-4.76v3.494h3.703v0.318h-3.703v3.811h4.975v0.424h-5.291
			L43.729,67.573L43.729,67.573z"/>
		<path id="XMLID_367_" fill="#5E5F5F" d="M52.724,73.396c0,0.74,0.317,1.271,0.74,1.8c0.425,0.425,1.059,0.636,1.799,0.636
			c0.636,0,1.164-0.209,1.587-0.527c0.529-0.318,0.741-0.85,0.741-1.482c0-0.636-0.212-1.166-0.741-1.482
			c-0.211-0.211-0.847-0.422-1.693-0.635h-0.104c-0.954-0.318-1.589-0.529-1.8-0.742c-0.423-0.317-0.636-0.846-0.636-1.375
			c0-0.74,0.213-1.271,0.742-1.694c0.422-0.318,1.058-0.528,1.797-0.528c0.742,0,1.377,0.21,1.906,0.635
			c0.529,0.422,0.741,1.059,0.846,1.799h-0.422c0-0.635-0.211-1.166-0.742-1.588c-0.422-0.317-0.951-0.529-1.691-0.529
			c-0.637,0-1.164,0.107-1.482,0.425c-0.425,0.315-0.636,0.846-0.636,1.375c0,0.423,0.211,0.848,0.529,1.164
			c0.211,0.213,0.847,0.423,1.692,0.636c0,0,0,0,0.106,0c0.104,0,0.104,0,0.104,0c0.846,0.211,1.481,0.423,1.8,0.637
			c0.636,0.422,0.846,0.951,0.846,1.586c0,0.741-0.317,1.377-0.846,1.801c-0.528,0.423-1.164,0.634-2.011,0.634
			s-1.481-0.21-2.012-0.741c-0.527-0.421-0.74-1.164-0.846-2.011L52.724,73.396L52.724,73.396z"/>
		<path id="XMLID_369_" fill="#5E5F5F" d="M61.824,67.573h0.424v8.363h-0.424V67.573z"/>
		<path id="XMLID_371_" fill="#5E5F5F" d="M67.01,68.737c0.635-0.847,1.587-1.27,2.857-1.27c1.269,0,2.223,0.423,2.856,1.27
			c0.636,0.741,0.847,1.801,0.847,3.072c0,1.27-0.316,2.326-0.847,3.07c-0.635,0.847-1.588,1.27-2.856,1.27
			c-1.271,0-2.223-0.423-2.857-1.27c-0.634-0.744-0.848-1.801-0.848-3.07C66.057,70.538,66.376,69.479,67.01,68.737z M67.221,74.562
			c0.529,0.847,1.375,1.165,2.539,1.165s2.011-0.423,2.54-1.165c0.53-0.741,0.742-1.695,0.742-2.859s-0.212-2.115-0.742-2.856
			c-0.636-0.849-1.479-1.271-2.54-1.271c-1.164,0-2.01,0.423-2.539,1.271c-0.529,0.741-0.741,1.692-0.741,2.856
			C66.48,72.975,66.799,73.925,67.221,74.562z"/>
		<path id="XMLID_374_" fill="#5E5F5F" d="M77.381,67.573h0.423l5.291,7.729v-7.729h0.423v8.363h-0.423l-5.291-7.729v7.729h-0.423
			V67.573z"/>
		<path id="XMLID_496_" fill="#5E5F5F" d="M89.973,67.573h0.423l3.175,8.363h-0.425l-1.056-2.857h-3.917l-1.058,2.857h-0.424
			L89.973,67.573z M91.982,72.762l-1.799-4.765l-1.798,4.765H91.982z"/>
		<path id="XMLID_565_" fill="#5E5F5F" d="M96.746,67.573h0.422v8.047h4.445v0.424h-4.869v-8.471H96.746z"/>
		<path id="XMLID_567_" fill="#5E5F5F" d="M104.999,67.573h5.186v0.424h-4.763v3.494h3.704v0.318h-3.704v3.811h4.869v0.424h-5.292
			V67.573L104.999,67.573z"/>
		<path id="XMLID_569_" fill="#5E5F5F" d="M113.889,73.396c0,0.74,0.317,1.271,0.74,1.8c0.424,0.425,1.058,0.636,1.799,0.636
			c0.635,0,1.165-0.209,1.587-0.527c0.529-0.318,0.74-0.85,0.74-1.482c0-0.636-0.211-1.166-0.74-1.482
			c-0.21-0.211-0.848-0.422-1.693-0.635h-0.105c-0.952-0.318-1.587-0.529-1.8-0.742c-0.422-0.317-0.634-0.846-0.634-1.375
			c0-0.74,0.212-1.271,0.74-1.694c0.423-0.318,1.06-0.528,1.8-0.528s1.375,0.21,1.903,0.635c0.529,0.424,0.741,1.059,0.849,1.799
			h-0.425c0-0.635-0.211-1.166-0.74-1.588c-0.423-0.317-0.952-0.529-1.693-0.529c-0.634,0-1.164,0.107-1.481,0.425
			c-0.423,0.315-0.635,0.846-0.635,1.375c0,0.423,0.212,0.848,0.529,1.164c0.213,0.213,0.847,0.423,1.692,0.636c0,0,0,0,0.105,0
			h0.105c0.847,0.211,1.481,0.423,1.799,0.637c0.635,0.422,0.848,0.951,0.848,1.586c0,0.741-0.317,1.377-0.848,1.801
			c-0.527,0.423-1.165,0.634-2.011,0.634c-0.847,0-1.48-0.21-2.01-0.741c-0.529-0.421-0.741-1.164-0.848-2.011L113.889,73.396
			L113.889,73.396z"/>
		<path id="XMLID_571_" fill="#5E5F5F" d="M130.503,67.573h0.423l3.175,8.363h-0.317l-1.058-2.857h-3.916l-1.06,2.857h-0.422
			L130.503,67.573z M132.512,72.762l-1.8-4.765l-1.798,4.765H132.512z"/>
		<path id="XMLID_574_" fill="#5E5F5F" d="M137.38,67.573h0.424v8.047h4.444v0.424h-4.868V67.573L137.38,67.573z"/>
		<path id="XMLID_576_" fill="#5E5F5F" d="M150.82,73.396c0,0.74,0.315,1.271,0.74,1.8c0.424,0.425,1.059,0.636,1.799,0.636
			c0.636,0,1.165-0.209,1.588-0.527c0.527-0.318,0.74-0.85,0.74-1.482c0-0.636-0.212-1.166-0.74-1.482
			c-0.213-0.211-0.847-0.422-1.693-0.635h-0.106c-0.952-0.318-1.586-0.529-1.797-0.742c-0.425-0.317-0.636-0.846-0.636-1.375
			c0-0.74,0.21-1.271,0.74-1.694c0.425-0.318,1.059-0.528,1.8-0.528s1.376,0.21,1.904,0.635c0.529,0.422,0.739,1.059,0.848,1.799
			h-0.318c0-0.635-0.212-1.166-0.741-1.588c-0.423-0.317-0.952-0.529-1.692-0.529c-0.635,0-1.163,0.107-1.482,0.425
			c-0.422,0.315-0.635,0.846-0.635,1.375c0,0.423,0.213,0.848,0.53,1.164c0.213,0.213,0.847,0.423,1.692,0.636c0,0,0,0,0.105,0
			c0.106,0,0.106,0,0.106,0c0.846,0.211,1.48,0.423,1.799,0.637c0.635,0.422,0.846,0.951,0.846,1.586
			c0,0.741-0.318,1.377-0.846,1.801c-0.529,0.423-1.164,0.634-2.012,0.634c-0.847,0-1.479-0.21-2.01-0.741
			c-0.529-0.421-0.741-1.164-0.848-2.011L150.82,73.396L150.82,73.396z"/>
		<path id="XMLID_579_" fill="#5E5F5F" d="M159.92,67.573h5.186v0.424h-4.761v3.494h3.702v0.318h-3.702v3.811h4.864v0.424h-5.29
			L159.92,67.573L159.92,67.573z"/>
		<path id="XMLID_581_" fill="#5E5F5F" d="M169.232,72.021v4.023h-0.424V67.68h2.752c0.951,0,1.586,0.106,2.01,0.425
			c0.529,0.316,0.849,0.952,0.849,1.798c0,1.06-0.531,1.8-1.482,2.118c0.74,0.105,1.06,0.634,1.164,1.482c0,0,0,0.422,0,1.059v1.587
			h-0.424v-1.905c0-0.212,0-0.423,0-0.529c0-0.104,0-0.211,0-0.319c-0.105-0.528-0.314-0.845-0.635-1.058
			c-0.318-0.106-0.738-0.211-1.271-0.211L169.232,72.021L169.232,72.021z M171.877,71.702c1.483,0,2.328-0.636,2.328-1.8
			c0-1.057-0.424-1.692-1.375-1.798c-0.107,0-0.213,0-0.424,0c-0.212,0-0.425,0-0.636,0h-2.433v3.706L171.877,71.702L171.877,71.702
			z"/>
		<path id="XMLID_584_" fill="#5E5F5F" d="M177.485,67.573h0.424l2.753,7.835l2.646-7.835h0.423l-2.963,8.363h-0.424L177.485,67.573
			z"/>
		<path id="XMLID_586_" fill="#5E5F5F" d="M187.009,67.573h0.425v8.363h-0.425V67.573z"/>
		<path id="XMLID_588_" fill="#5E5F5F" d="M197.063,75.408c-0.53,0.528-1.376,0.741-2.222,0.741c-1.164,0-2.118-0.423-2.754-1.27
			c-0.528-0.744-0.739-1.801-0.739-3.07c0-1.271,0.316-2.331,0.845-3.072c0.637-0.847,1.59-1.375,2.754-1.375
			c0.847,0,1.587,0.21,2.116,0.741c0.423,0.315,0.739,0.741,0.847,1.162l-0.317,0.213c-0.425-1.165-1.269-1.692-2.75-1.692
			c-1.059,0-1.8,0.422-2.435,1.27c-0.426,0.74-0.742,1.695-0.742,2.754c0,1.165,0.214,2.011,0.636,2.752
			c0.528,0.847,1.269,1.27,2.328,1.27c0.845,0,1.48-0.209,2.01-0.636c0.425-0.315,0.636-0.846,0.849-1.375l0.315,0.211
			C197.803,74.562,197.486,74.984,197.063,75.408z"/>
		<path id="XMLID_590_" fill="#5E5F5F" d="M202.036,67.573h0.423v8.363h-0.423V67.573z"/>
		<path id="XMLID_592_" fill="#5E5F5F" d="M207.222,68.737c0.634-0.847,1.587-1.27,2.856-1.27c1.271,0,2.225,0.423,2.856,1.27
			c0.635,0.741,0.847,1.801,0.847,3.072c0,1.27-0.317,2.326-0.847,3.07c-0.636,0.847-1.587,1.27-2.856,1.27
			c-1.271,0-2.224-0.423-2.856-1.27c-0.635-0.744-0.846-1.801-0.846-3.07C206.27,70.538,206.587,69.479,207.222,68.737z
			 M207.433,74.562c0.527,0.847,1.376,1.165,2.54,1.165c1.163,0,2.01-0.423,2.541-1.165c0.526-0.741,0.74-1.695,0.74-2.859
			s-0.214-2.115-0.74-2.856c-0.637-0.849-1.482-1.271-2.541-1.271s-2.013,0.423-2.54,1.271c-0.528,0.741-0.74,1.692-0.74,2.856
			C206.692,72.975,207.01,73.925,207.433,74.562z"/>
		<path id="XMLID_595_" fill="#5E5F5F" d="M222.99,67.573h1.904c1.269,0,2.114,0.105,2.75,0.424
			c1.271,0.633,1.905,1.904,1.905,3.812c0,1.904-0.635,3.175-1.905,3.811c-0.636,0.316-1.481,0.424-2.75,0.424h-1.904V67.573z
			 M224.999,75.62c1.163,0,2.01-0.106,2.54-0.425c1.059-0.528,1.588-1.692,1.588-3.386c0-1.379-0.318-2.436-1.059-3.18
			c-0.317-0.315-0.848-0.525-1.376-0.633c-0.213,0-0.424-0.105-0.637-0.105c-0.21,0-0.527,0-0.95,0h-1.587v7.729H224.999
			L224.999,75.62z"/>
		<path id="XMLID_600_" fill="#5E5F5F" d="M233.36,67.573h5.186v0.424h-4.763v3.494h3.704v0.318h-3.704v3.811h4.867v0.424h-5.29
			V67.573z"/>
		<path id="XMLID_602_" fill="#5E5F5F" d="M242.247,67.573h0.425v8.047h4.445v0.424h-4.87V67.573L242.247,67.573z"/>
		<path id="XMLID_604_" fill="#5E5F5F" d="M255.898,67.573h0.423v3.706h5.291v-3.706h0.425v8.363h-0.425v-4.339h-5.291v4.339h-0.423
			V67.573z"/>
		<path id="XMLID_606_" fill="#5E5F5F" d="M266.798,68.737c0.635-0.847,1.588-1.27,2.857-1.27s2.223,0.423,2.857,1.27
			c0.634,0.741,0.846,1.801,0.846,3.072c0,1.27-0.316,2.326-0.846,3.07c-0.636,0.847-1.589,1.27-2.857,1.27
			c-1.271,0-2.224-0.423-2.857-1.27c-0.636-0.744-0.845-1.801-0.845-3.07C265.848,70.538,266.162,69.479,266.798,68.737z
			 M267.115,74.562c0.527,0.847,1.377,1.165,2.54,1.165s2.011-0.423,2.538-1.165c0.53-0.741,0.74-1.695,0.74-2.859
			s-0.21-2.115-0.74-2.856c-0.634-0.849-1.479-1.271-2.538-1.271c-1.059,0-2.013,0.423-2.54,1.271
			c-0.527,0.741-0.739,1.692-0.739,2.856C266.271,72.975,266.588,73.925,267.115,74.562z"/>
		<path id="XMLID_609_" fill="#5E5F5F" d="M280.449,67.786c-1.059,0-1.903,0.424-2.541,1.271c-0.529,0.741-0.741,1.694-0.741,2.754
			c0,1.165,0.212,2.116,0.741,2.752c0.528,0.847,1.378,1.271,2.541,1.271c0.951,0,1.691-0.318,2.223-0.847
			c0.527-0.53,0.739-1.271,0.739-2.331v-0.316h-2.75v-0.317h3.175c0,0.104,0,0.104,0,0.211s0,0.106,0,0.212
			c0,1.801-0.637,2.965-1.799,3.493c-0.529,0.212-1.06,0.317-1.588,0.317c-1.163,0-2.116-0.422-2.754-1.27
			c-0.528-0.74-0.845-1.8-0.845-3.07c0-1.271,0.315-2.328,0.845-3.069c0.638-0.849,1.591-1.378,2.754-1.378
			c0.737,0,1.375,0.212,1.904,0.529c0.634,0.318,0.953,0.848,1.163,1.59l-0.317,0.211C282.883,68.314,282.037,67.786,280.449,67.786
			z"/>
		<path id="XMLID_611_" fill="#5E5F5F" d="M289.974,67.573h0.423l3.175,8.363h-0.425l-1.057-2.857h-3.81l-1.059,2.857h-0.426
			L289.974,67.573z M292.09,72.762l-1.799-4.765l-1.799,4.765H292.09z"/>
		<path id="XMLID_614_" fill="#5E5F5F" d="M297.274,72.021v4.023h-0.422V67.68h2.751c0.953,0,1.585,0.106,2.01,0.425
			c0.528,0.316,0.849,0.952,0.849,1.798c0,1.06-0.531,1.8-1.483,2.118c0.741,0.105,1.058,0.634,1.164,1.482c0,0,0,0.422,0,1.059
			v1.587h-0.423v-1.905c0-0.212,0-0.423,0-0.529c0-0.104,0-0.211,0-0.319c-0.104-0.528-0.319-0.845-0.634-1.058
			c-0.318-0.106-0.741-0.211-1.272-0.211L297.274,72.021L297.274,72.021z M299.812,71.702c1.481,0,2.329-0.636,2.329-1.8
			c0-1.057-0.423-1.692-1.375-1.798c-0.104,0-0.21,0-0.423,0c-0.212,0-0.426,0-0.635,0h-2.436v3.706L299.812,71.702L299.812,71.702z
			"/>
	</g>
</g>
</svg>
